# xmcd
#
# Track frame offsets: 
#        150
#        12372
#        27661
#        40542
#        59178
#        73691
#        88044
#        106285
#        122977
#        138600
#        154565
#        171065
#        180244
#        196026
#        209938
#        228087
#        244547
#        257927
#        273307
#        287530
#        303813
#        320524
#
# Disc length: 4420 seconds
#
# Revision: 0
# Processed by: cddbd v1.5.2PL0 Copyright (c) Steve Scherf et al.
# Submitted via: ExactAudioCopy v0.95a5
#
DISCID=39114216
DTITLE=Юрий Гарин - У случая в плену
DYEAR=2007
DGENRE=
TTITLE0=У случая в плену
TTITLE1=Здравствуйте, люди!
TTITLE2=Альпинист
TTITLE3=Танец старого сундука
TTITLE4=Монолог горнолыжника
TTITLE5=Романс (ст. А. Блока)
TTITLE6=Прогулки по Москве
TTITLE7=Чечня
TTITLE8=А жизнь уходит...
TTITLE9=Господи, помилуй
TTITLE10=Новогодний тост
TTITLE11=Два парохода
TTITLE12=Когда один
TTITLE13=Белая лошадка
TTITLE14=Грушинское братство
TTITLE15=Встретил Вас...
TTITLE16=Ну что ты хочешь от меня?!
TTITLE17=Старость
TTITLE18=Незнакомка
TTITLE19=Вагон московского метро
TTITLE20=Ветхий романс
TTITLE21=Новая весна
EXTD=
EXTT0=
EXTT1=
EXTT2=
EXTT3=
EXTT4=
EXTT5=
EXTT6=
EXTT7=
EXTT8=
EXTT9=
EXTT10=
EXTT11=
EXTT12=
EXTT13=
EXTT14=
EXTT15=
EXTT16=
EXTT17=
EXTT18=
EXTT19=
EXTT20=
EXTT21=
PLAYORDER=
